<svg width="40" height="40" viewBox="0 0 40 40" fill="none" xmlns="http://www.w3.org/2000/svg">
<rect width="40" height="40" fill="#A7C4B0"/>
<path fill-rule="evenodd" clip-rule="evenodd" d="M11 26.6255H12.875V28.5005H11V26.6255ZM28.3187 14.3067L25.1937 11.1817C24.95 10.9394 24.5563 10.9394 24.3125 11.1817L22.25 13.2442L21.4437 12.4317L20.5562 13.3192L21.3687 14.1255L14.9312 20.5567C14.8143 20.6747 14.749 20.8344 14.75 21.0005V21.9942L13.0562 23.6817C12.8139 23.9255 12.8139 24.3192 13.0562 24.563L14.9312 26.438C15.175 26.6803 15.5687 26.6803 15.8125 26.438L17.5062 24.7505H18.5C18.6661 24.7515 18.8258 24.6862 18.9437 24.5692L25.375 18.1317L26.1812 18.9442L27.0687 18.0567L26.2562 17.2505L28.3187 15.1942C28.5611 14.9505 28.5611 14.5568 28.3187 14.313V14.3067ZM18.2437 23.5005H16.9937L15.375 25.1192L14.3812 24.1255L16 22.5067V21.2567L22.25 15.0067L24.4937 17.2505L18.2437 23.5005ZM25.375 16.3692L23.1313 14.1255L24.75 12.5067L26.9937 14.7505L25.375 16.3692Z" fill="#EEE2D2"/>
</svg>
