<svg width="40" height="40" viewBox="0 0 40 40" fill="none" xmlns="http://www.w3.org/2000/svg">
<rect width="40" height="40" fill="#6A735A"/>
<path fill-rule="evenodd" clip-rule="evenodd" d="M28.6748 14.103C27.9712 13.3969 27.0154 13 26.0186 13C25.0218 13 24.066 13.3969 23.3623 14.103L24.2498 14.9905C24.8829 14.3574 25.8055 14.1102 26.6703 14.3419C27.535 14.5736 28.2104 15.249 28.4421 16.1138C28.6739 16.9785 28.4266 17.9012 27.7936 18.5342L22.7936 23.5342C22.1617 24.1672 21.2401 24.4151 20.3759 24.1843C19.5117 23.9536 18.8363 23.2793 18.604 22.4156C18.3717 21.5518 18.6179 20.6297 19.2498 19.9967L20.1311 19.1092L19.2498 18.2217L18.3623 19.1092C17.6563 19.8128 17.2594 20.7686 17.2594 21.7655C17.2594 22.7623 17.6563 23.7181 18.3623 24.4217C19.0695 25.1198 20.0249 25.5087 21.0186 25.503C22.0193 25.5071 22.9802 25.111 23.6873 24.403L28.6873 19.403C30.1462 17.9354 30.1406 15.5636 28.6748 14.103V14.103ZM13.0123 25.3905C12.541 24.9213 12.276 24.2836 12.276 23.6186C12.276 22.9535 12.541 22.3159 13.0123 21.8467L18.0123 16.8467C18.4815 16.3753 19.1192 16.1104 19.7842 16.1104C20.4493 16.1104 21.0869 16.3753 21.5561 16.8467C22.0246 17.3197 22.2817 17.9623 22.2686 18.628C22.2724 19.2955 22.0091 19.9369 21.5373 20.4092L20.2123 21.753L21.0998 22.6405L22.4248 21.3155C23.8936 19.8467 23.8936 17.4654 22.4248 15.9967C20.9561 14.528 18.5748 14.528 17.1061 15.9967L12.1061 20.9967C11.3981 21.7006 11 22.6577 11 23.6561C11 24.6544 11.3981 25.6116 12.1061 26.3155C12.8179 27.0083 13.7754 27.3904 14.7686 27.378C15.7705 27.3789 16.7322 26.9835 17.4436 26.278L16.5561 25.3905C16.0869 25.8618 15.4493 26.1268 14.7842 26.1268C14.1192 26.1268 13.4815 25.8618 13.0123 25.3905V25.3905Z" fill="#EEE2D2"/>
</svg>
