<svg width="20" height="20" viewBox="0 0 20 20" fill="none" xmlns="http://www.w3.org/2000/svg">
<circle cx="10" cy="10" r="9.4" transform="rotate(-180 10 10)" stroke="black" stroke-width="1.2"/>
<path d="M10.5 5.25C10.5 5.66421 10.1642 6 9.75 6C9.33579 6 9 5.66421 9 5.25C9 4.83579 9.33579 4.5 9.75 4.5C10.1642 4.5 10.5 4.83579 10.5 5.25Z" fill="black"/>
<path d="M10 14V9.5C10 9.03501 10 8.80252 9.94889 8.61177C9.81019 8.09413 9.40587 7.68981 8.88823 7.55111C8.69748 7.5 8.46499 7.5 8 7.5V7.5M10 14H11.5M10 14H8.5" stroke="black" stroke-width="1.2"/>
</svg>
