<svg viewBox="0 0 40 40" fill="none" xmlns="http://www.w3.org/2000/svg">
<circle cx="20" cy="20" r="19.4" transform="rotate(-180 20 20)" stroke="black" stroke-width="1.2"/>
<path d="M25.5808 8.03099C23.4519 8.03099 21.7097 9.77316 21.7097 11.902C21.7097 12.3368 21.7816 12.7572 21.9155 13.1479L15.2865 17.4545C14.5766 16.6668 13.5565 16.16 12.4194 16.16C10.2905 16.16 8.54834 17.9021 8.54834 20.031C8.54834 22.1599 10.2905 23.902 12.4194 23.902C13.5611 23.902 14.5882 23.4009 15.2983 22.6075L21.9155 26.9141C21.7794 27.3081 21.7097 27.7215 21.7097 28.16C21.7097 30.2888 23.4519 32.031 25.5808 32.031C27.7096 32.031 29.4518 30.2888 29.4518 28.16C29.4518 26.0311 27.7096 24.2889 25.5808 24.2889C24.4437 24.2889 23.4239 24.7958 22.7137 25.5834L16.0847 21.2768C16.2183 20.8859 16.2904 20.4654 16.2904 20.031C16.2904 19.5925 16.2207 19.1791 16.0847 18.7851L22.7018 14.4785C23.412 15.2719 24.4392 15.7731 25.5808 15.7731C27.7096 15.7731 29.4518 14.0309 29.4518 11.902C29.4518 9.77316 27.7096 8.03099 25.5808 8.03099ZM25.5808 9.57927C26.8726 9.57927 27.9035 10.6099 27.9035 11.902C27.9035 13.1938 26.8729 14.2248 25.5808 14.2248C24.289 14.2248 23.258 13.1941 23.258 11.902C23.258 10.6102 24.2887 9.57927 25.5808 9.57927ZM12.4193 17.7084C13.7111 17.7084 14.742 18.7391 14.742 20.0312C14.742 21.323 13.7114 22.354 12.4193 22.354C11.1274 22.354 10.0965 21.3233 10.0965 20.0312C10.0965 18.7391 11.1272 17.7084 12.4193 17.7084ZM25.5808 25.8376C26.8726 25.8376 27.9035 26.8683 27.9035 28.1604C27.9035 29.4522 26.8729 30.4831 25.5808 30.4831C24.289 30.4831 23.258 29.4525 23.258 28.1604C23.258 26.8686 24.2887 25.8376 25.5808 25.8376Z" fill="black"/>
</svg>
