<svg width="20" height="20" viewBox="0 0 20 20" fill="none" xmlns="http://www.w3.org/2000/svg">
<circle cx="10" cy="10" r="9.25" transform="rotate(-180 10 10)" stroke="#EEE2D2" stroke-width="1.5"/>
<path d="M11.0423 9.99529C10.823 9.77598 10.4663 9.77598 10.247 9.99529C9.58905 10.6532 8.51681 10.6532 7.85878 9.99529L5.8694 8.00591C5.55039 7.6869 5.37537 7.26376 5.37537 6.81184C5.37537 6.35992 5.55038 5.93678 5.8694 5.61777C6.52735 4.95982 7.59736 4.95982 8.25761 5.61777L9.48048 6.84064C9.6998 7.05996 10.0565 7.05996 10.2758 6.84064C10.4951 6.62132 10.4951 6.26464 10.2758 6.04532L9.05293 4.82245C7.95633 3.72585 6.1707 3.72585 5.07412 4.82245C4.54244 5.35414 4.25 6.05861 4.25 6.81184C4.25 7.56284 4.54244 8.26954 5.07412 8.80122L7.0635 10.7906C7.61291 11.3378 8.3329 11.6125 9.05289 11.6125C9.77288 11.6125 10.4929 11.3378 11.0423 10.7906C11.2616 10.5713 11.2616 10.2146 11.0423 9.99529H11.0423Z" fill="#EEE2D2"/>
<path d="M14.6835 10.4493L12.6941 8.4599C11.5975 7.3633 9.81185 7.3633 8.71527 8.4599C8.49595 8.67922 8.49595 9.0359 8.71527 9.25522C8.93459 9.47454 9.29127 9.47454 9.51059 9.25522C10.1685 8.59727 11.2385 8.59727 11.8988 9.25522L13.8882 11.2446C14.2072 11.5636 14.3822 11.9868 14.3822 12.4387C14.3822 12.8906 14.2072 13.3137 13.8882 13.6327C13.2502 14.2708 12.1381 14.2708 11.5 13.6327L10.2793 12.4099C10.06 12.1906 9.70331 12.1906 9.48399 12.4099C9.26467 12.6292 9.26467 12.9859 9.48399 13.2052L10.7069 14.4259C11.2385 14.9575 11.9452 15.25 12.6962 15.25C13.4472 15.25 14.154 14.9575 14.6856 14.4259C15.2173 13.8942 15.5098 13.1875 15.5098 12.4365C15.5075 11.6855 15.2151 10.981 14.6834 10.4493L14.6835 10.4493Z" fill="#EEE2D2"/>
</svg>
