<svg width="40" height="41" viewBox="0 0 40 41" fill="none" xmlns="http://www.w3.org/2000/svg">
<circle cx="20" cy="20.5" r="19.25" stroke="black" stroke-width="1.5"/>
<path d="M20.0129 7.07943C19.0822 7.06154 18.1549 7.19681 17.2684 7.4802C15.2107 8.13668 13.455 9.50665 12.3179 11.3431C11.1807 13.1795 10.7369 15.3616 11.0664 17.4965C11.3403 19.324 11.8802 21.1018 12.6689 22.773C13.8577 25.2838 15.337 27.6465 17.0762 29.8127C17.8375 30.7822 18.6546 31.7118 19.4803 32.6413H19.48C19.5909 32.8162 19.7838 32.9221 19.9909 32.9221C20.198 32.9221 20.3908 32.8162 20.5017 32.6413C21.9807 31.018 23.346 29.2951 24.5885 27.4847C26.1764 25.2542 27.4316 22.8046 28.3144 20.2128C28.8988 18.543 29.1134 16.7658 28.9435 15.0046C28.6794 12.8208 27.6252 10.8093 25.98 9.34939C24.335 7.88972 22.2124 7.08226 20.0129 7.07947L20.0129 7.07943ZM19.9888 20.794C18.7415 20.7928 17.5457 20.2959 16.665 19.4128C15.7842 18.5293 15.2906 17.3324 15.2931 16.0851C15.2956 14.8374 15.7939 13.6424 16.6781 12.7626C17.5624 11.8828 18.7602 11.3907 20.0075 11.3946C21.2548 11.3985 22.4495 11.8982 23.3282 12.7833C24.2068 13.6687 24.6976 14.8671 24.6923 16.1144C24.6861 17.3578 24.1875 18.5478 23.3064 19.4248C22.4249 20.3018 21.2321 20.794 19.9887 20.794H19.9888Z" fill="black"/>
</svg>
