<svg width="40" height="40" viewBox="0 0 40 40" fill="none" xmlns="http://www.w3.org/2000/svg">
<circle cx="20" cy="20" r="19.25" fill="black" stroke="black" stroke-width="1.5"/>
<path d="M20.0135 6.57945C19.0828 6.56156 18.1555 6.69683 17.2691 6.98022C15.2113 7.6367 13.4556 9.00667 12.3185 10.8431C11.1814 12.6795 10.7375 14.8617 11.067 16.9966C11.3409 18.824 11.8809 20.6018 12.6695 22.273C13.8584 24.7838 15.3376 27.1465 17.0768 29.3127C17.8382 30.2823 18.6553 31.2118 19.4809 32.1413H19.4806C19.5916 32.3162 19.7844 32.4222 19.9915 32.4222C20.1986 32.4222 20.3914 32.3162 20.5024 32.1413C21.9814 30.5181 23.3466 28.7951 24.5891 26.9847C26.1771 24.7542 27.4322 22.3047 28.3151 19.7129C28.8994 18.043 29.1141 16.2658 28.9442 14.5046C28.6801 12.3208 27.6259 10.3094 25.9806 8.84941C24.3356 7.38974 22.213 6.58228 20.0136 6.57949L20.0135 6.57945ZM19.9895 20.294C18.7421 20.2929 17.5463 19.796 16.6657 18.9128C15.7848 18.0294 15.2912 16.8324 15.2937 15.5851C15.2962 14.3375 15.7945 13.1424 16.6788 12.2627C17.563 11.3829 18.7609 10.8907 20.0081 10.8946C21.2555 10.8985 22.4502 11.3982 23.3288 12.2833C24.2075 13.1687 24.6983 14.3671 24.6929 15.6144C24.6868 16.8578 24.1882 18.0478 23.307 18.9248C22.4256 19.8018 21.2328 20.294 19.9894 20.294H19.9895Z" fill="#EEE2D2"/>
</svg>
