<svg width="20" height="20" viewBox="0 0 20 20" fill="none" xmlns="http://www.w3.org/2000/svg">
<circle cx="10" cy="10" r="9.4" transform="rotate(-180 10 10)" stroke="#EEE2D2" stroke-width="1.2"/>
<path d="M12.0184 5.5C11.2036 5.5 10.5369 6.16676 10.5369 6.98152C10.5369 7.1479 10.5644 7.3088 10.6156 7.45833L8.07858 9.10655C7.80688 8.80508 7.41647 8.61111 6.98127 8.61111C6.16652 8.61111 5.49976 9.27787 5.49976 10.0926C5.49976 10.9074 6.16652 11.5741 6.98127 11.5741C7.41822 11.5741 7.81132 11.3823 8.0831 11.0787L10.6156 12.7269C10.5635 12.8777 10.5369 13.0359 10.5369 13.2037C10.5369 14.0185 11.2036 14.6853 12.0184 14.6853C12.8332 14.6853 13.4999 14.0185 13.4999 13.2037C13.4999 12.389 12.8332 11.7222 12.0184 11.7222C11.5832 11.7222 11.1929 11.9162 10.9211 12.2177L8.38405 10.5694C8.4352 10.4198 8.46279 10.2589 8.46279 10.0926C8.46279 9.9248 8.43613 9.76659 8.38405 9.61582L10.9166 7.9676C11.1883 8.27123 11.5815 8.46304 12.0184 8.46304C12.8332 8.46304 13.4999 7.79627 13.4999 6.98152C13.4999 6.16676 12.8332 5.5 12.0184 5.5Z" fill="#EEE2D2"/>
</svg>
