<svg width="20" height="20" viewBox="0 0 20 20" fill="none" xmlns="http://www.w3.org/2000/svg">
<circle cx="10" cy="10" r="9.4" transform="rotate(-180 10 10)" stroke="black" stroke-width="1.2"/>
<path d="M12.3333 5C11.4167 5 10.6666 5.72591 10.6666 6.61293C10.6666 6.79407 10.6976 6.96925 10.7552 7.13204L7.90112 8.92645C7.59546 8.59825 7.15626 8.38707 6.66668 8.38707C5.75009 8.38707 5 9.11298 5 10C5 10.887 5.75009 11.6129 6.66668 11.6129C7.15823 11.6129 7.60046 11.4041 7.90621 11.0735L10.7552 12.868C10.6966 13.0321 10.6666 13.2044 10.6666 13.3871C10.6666 14.2741 11.4167 15 12.3333 15C13.2499 15 14 14.2741 14 13.3871C14 12.5 13.2499 11.7741 12.3333 11.7741C11.8438 11.7741 11.4047 11.9853 11.0989 12.3135L8.24476 10.5191C8.30231 10.3562 8.33335 10.181 8.33335 10C8.33335 9.81728 8.30336 9.64504 8.24476 9.4809L11.0938 7.68648C11.3995 8.01705 11.8418 8.22586 12.3333 8.22586C13.2499 8.22586 14 7.49996 14 6.61293C14 5.72591 13.2499 5 12.3333 5Z" fill="black"/>
</svg>
