<svg class="stroke-current" viewBox="0 0 40 40" fill="none" xmlns="http://www.w3.org/2000/svg">
<circle cx="20" cy="20" r="19.5"/>
<path d="M20.0004 10C17.6695 9.99659 15.411 10.8085 13.6159 12.2953C11.8209 13.7821 10.6024 15.85 10.172 18.1407C9.74128 20.4314 10.1255 22.8006 11.2581 24.8376L10.0261 29.1504C9.98237 29.3035 9.99487 29.4672 10.0614 29.6118C10.1279 29.7565 10.244 29.8726 10.3886 29.9391C10.5333 30.0056 10.697 30.0181 10.8501 29.9743L15.1629 28.7423C16.9489 29.7307 18.9946 30.1487 21.0255 29.94C23.056 29.7313 24.9737 28.9059 26.5215 27.5749C28.0692 26.2438 29.1722 24.4709 29.6823 22.4945C30.1925 20.5181 30.0853 18.4327 29.3752 16.5188C28.665 14.6051 27.386 12.9546 25.7102 11.7892C24.0343 10.6238 22.0417 9.99943 20.0004 10L20.0004 10ZM20.0004 28.667C18.4478 28.6646 16.9246 28.2446 15.5904 27.4509C15.4325 27.3577 15.2432 27.3336 15.067 27.3842L11.6376 28.3643L12.6176 24.9336C12.6683 24.7574 12.6442 24.5681 12.5509 24.4102C11.5796 22.7652 11.1795 20.8453 11.4128 18.9492C11.646 17.053 12.4997 15.2874 13.841 13.927C15.182 12.5666 16.9354 11.6879 18.8281 11.4276C20.7205 11.1672 22.646 11.5399 24.3047 12.4877C25.9634 13.4355 27.2621 14.9052 27.9987 16.6676C28.7352 18.4303 28.8683 20.387 28.3771 22.233C27.886 24.0792 26.7982 25.7112 25.2832 26.8746C23.7681 28.0383 21.9108 28.6682 20.0004 28.6666L20.0004 28.667Z" />
<path d="M25.5271 22.292C25.5064 22.274 23.1671 20.5492 22.3743 20.6873C21.9743 20.758 21.7583 21.0161 21.3983 21.4447C21.3356 21.5186 21.2836 21.578 21.2397 21.6307C21.1249 21.5874 20.9843 21.5287 20.823 21.4506C19.8317 20.9683 19.031 20.1672 18.549 19.176C18.471 19.0153 18.4124 18.8747 18.3689 18.7599C18.4222 18.7132 18.485 18.6605 18.5555 18.6006C18.9835 18.2419 19.2416 18.0252 19.3122 17.6245C19.4502 16.8358 17.7256 14.4911 17.7076 14.4718V14.4719C17.5037 14.1938 17.1853 14.0224 16.8409 14.0052C16.0149 14.0052 14.0049 16.5572 14.0049 17.1547C14.0049 17.258 14.0402 19.7348 17.1316 22.8809C20.2663 25.9614 22.7431 26.0001 22.8471 26.0001C23.4444 26.0001 25.9998 23.9867 25.9998 23.1608C25.9819 22.8145 25.8081 22.495 25.5272 22.292L25.5271 22.292ZM22.7464 24.6527C22.2764 24.5941 20.3983 24.2213 18.0724 21.936C15.7682 19.5906 15.3996 17.7055 15.3463 17.2545C15.7747 16.6198 16.2631 16.0278 16.805 15.4864C17.2227 16.0922 17.5995 16.7253 17.9329 17.3812C17.859 17.4479 17.7663 17.524 17.7002 17.5812C17.47 17.7559 17.2597 17.9559 17.0736 18.1773L16.9109 18.4039L16.959 18.6792C17.0444 19.0542 17.1761 19.4173 17.3509 19.7599C17.9645 21.02 18.9828 22.038 20.2429 22.6513C20.5855 22.8266 20.9485 22.9584 21.3236 23.044L21.5989 23.0913L21.825 22.93C22.0464 22.7437 22.2465 22.5336 22.4217 22.3032C22.4803 22.2333 22.555 22.1425 22.6217 22.0705V22.0706C23.2777 22.4031 23.9105 22.779 24.5163 23.1959C23.9742 23.7368 23.3815 24.2247 22.7464 24.6526V24.6527Z"/>
</svg>
