<svg width="40" height="40" viewBox="0 0 40 40" fill="none" xmlns="http://www.w3.org/2000/svg">
<circle cx="20" cy="20" r="19.25" transform="rotate(-180 20 20)" stroke="#EEE2D2" stroke-width="1.5"/>
<path d="M24.037 11C22.4075 11 21.074 12.3335 21.074 13.963C21.074 14.2958 21.129 14.6176 21.2315 14.9167L16.1574 18.2131C15.614 17.6102 14.8332 17.2222 13.9628 17.2222C12.3333 17.2222 10.9998 18.5557 10.9998 20.1853C10.9998 21.8148 12.3333 23.1483 13.9628 23.1483C14.8367 23.1483 15.6229 22.7647 16.1664 22.1574L21.2315 25.4539C21.1273 25.7554 21.074 26.0719 21.074 26.4075C21.074 28.037 22.4075 29.3705 24.037 29.3705C25.6665 29.3705 27.0001 28.037 27.0001 26.4075C27.0001 24.778 25.6665 23.4444 24.037 23.4444C23.1667 23.4444 22.386 23.8324 21.8424 24.4353L16.7683 21.1389C16.8706 20.8396 16.9258 20.5178 16.9258 20.1853C16.9258 19.8496 16.8725 19.5332 16.7683 19.2316L21.8334 15.9352C22.3769 16.5425 23.1632 16.9261 24.037 16.9261C25.6665 16.9261 27.0001 15.5925 27.0001 13.963C27.0001 12.3335 25.6665 11 24.037 11Z" fill="#EEE2D2"/>
</svg>
