<svg class="stroke-current fill-current" width="40" height="40" viewBox="0 0 40 40" fill="none" xmlns="http://www.w3.org/2000/svg">
<circle cx="20" cy="20" r="19.5" />
<path d="M26.6667 10H13.3333C12.4492 10 11.6014 10.3511 10.9763 10.9763C10.3511 11.6014 10 12.4492 10 13.3333V26.6667C10 27.5508 10.3511 28.3986 10.9763 29.0237C11.6014 29.6489 12.4492 30 13.3333 30H26.6667C27.5508 30 28.3986 29.6489 29.0237 29.0237C29.6489 28.3986 30 27.5508 30 26.6667V13.3333C30 12.4492 29.6489 11.6014 29.0237 10.9763C28.3986 10.3511 27.5508 10 26.6667 10V10ZM28.3334 26.6667H28.3333C28.3333 27.1086 28.1578 27.5326 27.8452 27.8451C27.5327 28.1577 27.1087 28.3332 26.6667 28.3332H13.3333C12.8913 28.3332 12.4673 28.1577 12.1548 27.8451C11.8422 27.5326 11.6667 27.1086 11.6667 26.6667V13.3332C11.6667 12.8912 11.8422 12.4673 12.1548 12.1548C12.4673 11.8421 12.8913 11.6666 13.3333 11.6666H26.6667C27.1087 11.6666 27.5327 11.8421 27.8452 12.1548C28.1578 12.4673 28.3333 12.8912 28.3333 13.3332L28.3334 26.6667Z" />
<path d="M20 14.9999C18.6739 14.9999 17.4022 15.5267 16.4644 16.4644C15.5268 17.4021 15 18.6739 15 19.9999C15 21.3259 15.5268 22.5977 16.4644 23.5354C17.4022 24.4731 18.6739 24.9999 20 24.9999C21.326 24.9999 22.5977 24.4731 23.5355 23.5354C24.4731 22.5977 24.9999 21.3259 24.9999 19.9999C24.9999 18.6739 24.4731 17.4021 23.5355 16.4644C22.5977 15.5267 21.326 14.9999 20 14.9999V14.9999ZM20 23.3331C19.1159 23.3331 18.2681 22.982 17.643 22.3568C17.0178 21.7317 16.6667 20.8839 16.6667 19.9998C16.6667 19.1158 17.0178 18.268 17.643 17.6428C18.2681 17.0177 19.1159 16.6666 20 16.6666C20.884 16.6666 21.7318 17.0177 22.3569 17.6428C22.9821 18.268 23.3332 19.1158 23.3332 19.9998C23.3332 20.8839 22.9821 21.7317 22.3569 22.3568C21.7318 22.982 20.884 23.3331 20 23.3331Z" />
<path d="M26.667 14.5832C26.667 15.2736 26.1073 15.8332 25.417 15.8332C24.7266 15.8332 24.167 15.2736 24.167 14.5832C24.167 13.8929 24.7266 13.3332 25.417 13.3332C26.1073 13.3332 26.667 13.8929 26.667 14.5832Z" />
</svg>
