<svg width="40" height="40" viewBox="0 0 40 40" fill="none" xmlns="http://www.w3.org/2000/svg">
<circle cx="20" cy="20" r="9.5" transform="rotate(-180 20 20)" stroke="black"/>
<path d="M21.7419 15C20.8548 15 20.1289 15.7259 20.1289 16.6129C20.1289 16.7941 20.1589 16.9692 20.2147 17.132L17.4526 18.9265C17.1568 18.5982 16.7317 18.3871 16.258 18.3871C15.3709 18.3871 14.645 19.113 14.645 20C14.645 20.887 15.3709 21.6129 16.258 21.6129C16.7336 21.6129 17.1616 21.4041 17.4575 21.0735L20.2147 22.868C20.158 23.0321 20.1289 23.2044 20.1289 23.3871C20.1289 24.2741 20.8548 25 21.7419 25C22.6289 25 23.3548 24.2741 23.3548 23.3871C23.3548 22.5 22.6289 21.7741 21.7419 21.7741C21.2681 21.7741 20.8432 21.9853 20.5472 22.3135L17.7851 20.5191C17.8408 20.3562 17.8709 20.181 17.8709 20C17.8709 19.8173 17.8419 19.645 17.7851 19.4809L20.5423 17.6865C20.8382 18.017 21.2662 18.2259 21.7419 18.2259C22.6289 18.2259 23.3548 17.5 23.3548 16.6129C23.3548 15.7259 22.6289 15 21.7419 15ZM21.7419 15.6451C22.2801 15.6451 22.7097 16.0746 22.7097 16.6129C22.7097 17.1512 22.2802 17.5807 21.7419 17.5807C21.2036 17.5807 20.7741 17.1513 20.7741 16.6129C20.7741 16.0747 21.2035 15.6451 21.7419 15.6451ZM16.2579 19.0323C16.7962 19.0323 17.2257 19.4617 17.2257 20.0001C17.2257 20.5383 16.7963 20.9679 16.2579 20.9679C15.7196 20.9679 15.2901 20.5385 15.2901 20.0001C15.2901 19.4617 15.7195 19.0323 16.2579 19.0323ZM21.7419 22.4194C22.2801 22.4194 22.7097 22.8489 22.7097 23.3872C22.7097 23.9255 22.2802 24.3551 21.7419 24.3551C21.2036 24.3551 20.7741 23.9256 20.7741 23.3872C20.7741 22.849 21.2035 22.4194 21.7419 22.4194Z" fill="black"/>
</svg>
