<svg width="40" height="40" viewBox="0 0 40 40" fill="none" xmlns="http://www.w3.org/2000/svg">
<circle cx="20" cy="20" r="9.5" transform="rotate(-180 20 20)" stroke="#EEE2D2"/>
<path d="M22.097 15C21.21 15 20.4841 15.7259 20.4841 16.613C20.4841 16.7941 20.514 16.9693 20.5698 17.1321L17.8076 18.9265C17.5118 18.5983 17.0868 18.3872 16.613 18.3872C15.7259 18.3872 15 19.1131 15 20.0001C15 20.8872 15.7259 21.6131 16.613 21.6131C17.0887 21.6131 17.5167 21.4043 17.8126 21.0737L20.5698 22.8682C20.5131 23.0323 20.4841 23.2046 20.4841 23.3873C20.4841 24.2743 21.21 25.0003 22.097 25.0003C22.9841 25.0003 23.71 24.2743 23.71 23.3873C23.71 22.5002 22.9841 21.7743 22.097 21.7743C21.6232 21.7743 21.1983 21.9855 20.9024 22.3137L18.1402 20.5192C18.1959 20.3563 18.2259 20.1812 18.2259 20.0001C18.2259 19.8174 18.1969 19.6452 18.1402 19.481L20.8974 17.6865C21.1933 18.0171 21.6213 18.2259 22.097 18.2259C22.9841 18.2259 23.71 17.5 23.71 16.613C23.71 15.7259 22.9841 15 22.097 15ZM22.097 15.6451C22.6353 15.6451 23.0649 16.0746 23.0649 16.613C23.0649 17.1512 22.6354 17.5808 22.097 17.5808C21.5588 17.5808 21.1292 17.1514 21.1292 16.613C21.1292 16.0747 21.5586 15.6451 22.097 15.6451ZM16.6129 19.0324C17.1512 19.0324 17.5808 19.4618 17.5808 20.0002C17.5808 20.5385 17.1513 20.9681 16.6129 20.9681C16.0747 20.9681 15.6451 20.5386 15.6451 20.0002C15.6451 19.4618 16.0745 19.0324 16.6129 19.0324ZM22.097 22.4196C22.6353 22.4196 23.0649 22.8491 23.0649 23.3875C23.0649 23.9257 22.6354 24.3553 22.097 24.3553C21.5588 24.3553 21.1292 23.9258 21.1292 23.3875C21.1292 22.8492 21.5586 22.4196 22.097 22.4196Z" fill="#EEE2D2"/>
</svg>
