<svg width="40" height="40" viewBox="0 0 40 40" fill="none" xmlns="http://www.w3.org/2000/svg">
<rect width="40" height="40" fill="#CCC8BC"/>
<path fill-rule="evenodd" clip-rule="evenodd" d="M11 27.404H29.375V28.7165H11V27.404ZM26.3628 15.5915C26.6093 15.3453 26.7478 15.0113 26.7478 14.6629C26.7478 14.3146 26.6093 13.9805 26.3628 13.7343L24.0134 11.3849C23.7673 11.1385 23.4332 11 23.0848 11C22.7365 11 22.4024 11.1385 22.1562 11.3849L12.3125 21.2287V25.4353H16.5191L26.3628 15.5915ZM23.0816 12.3103L25.4375 14.6662L23.4687 16.6349L21.1128 14.279L23.0816 12.3103ZM13.625 24.1228V21.7668L20.1875 15.2043L22.5434 17.5603L15.9809 24.1228H13.625Z" fill="#EEE2D2"/>
</svg>
