<svg width="40" height="40" viewBox="0 0 40 40" fill="none" xmlns="http://www.w3.org/2000/svg">
<rect width="40" height="40" fill="#BC6E4D"/>
<path fill-rule="evenodd" clip-rule="evenodd" d="M26.8542 23.9686V16.6773C27.9793 16.3922 28.7336 15.3356 28.6377 14.1788C28.5418 13.0221 27.6238 12.1041 26.4671 12.0082C25.3103 11.9123 24.2537 12.6665 23.9686 13.7917H16.6773C16.3922 12.6665 15.3356 11.9123 14.1788 12.0082C13.0221 12.1041 12.1041 13.0221 12.0082 14.1788C11.9123 15.3356 12.6665 16.3922 13.7917 16.6773V23.9686C12.6665 24.2537 11.9123 25.3103 12.0082 26.4671C12.1041 27.6238 13.0221 28.5418 14.1788 28.6377C15.3356 28.7336 16.3922 27.9793 16.6773 26.8542H23.9686C24.2537 27.9793 25.3103 28.7336 26.4671 28.6377C27.6238 28.5418 28.5418 27.6238 28.6377 26.4671C28.7336 25.3103 27.9793 24.2537 26.8542 23.9686ZM23.2917 17.3542H17.3542V18.5417H19.7292V23.8854H20.9167V18.5417H23.2917V17.3542ZM27.4479 14.3854C27.4479 13.7296 26.9163 13.1979 26.2604 13.1979C25.6046 13.1979 25.0729 13.7296 25.0729 14.3854C25.0729 15.0413 25.6046 15.5729 26.2604 15.5729C26.9163 15.5729 27.4479 15.0413 27.4479 14.3854ZM13.1979 14.3854C13.1979 13.7296 13.7296 13.1979 14.3854 13.1979C15.0413 13.1979 15.5729 13.7296 15.5729 14.3854C15.5729 15.0413 15.0413 15.5729 14.3854 15.5729C13.7296 15.5729 13.1979 15.0413 13.1979 14.3854ZM13.1979 26.2604C13.1979 26.9163 13.7296 27.4479 14.3854 27.4479C15.0413 27.4479 15.5729 26.9163 15.5729 26.2604C15.5729 25.6046 15.0413 25.0729 14.3854 25.0729C13.7296 25.0729 13.1979 25.6046 13.1979 26.2604ZM23.9686 25.6667H16.6773C16.4602 24.8351 15.8108 24.1856 14.9792 23.9686V16.6773C15.8108 16.4602 16.4602 15.8108 16.6773 14.9792H23.9686C24.1856 15.8108 24.8351 16.4602 25.6667 16.6773V23.9686C24.8351 24.1856 24.1856 24.8351 23.9686 25.6667ZM25.0729 26.2604C25.0729 26.9163 25.6046 27.4479 26.2604 27.4479C26.9163 27.4479 27.4479 26.9163 27.4479 26.2604C27.4479 25.6046 26.9163 25.0729 26.2604 25.0729C25.6046 25.0729 25.0729 25.6046 25.0729 26.2604Z" fill="#EEE2D2"/>
</svg>
