<svg width="40" height="40" viewBox="0 0 40 40" fill="none" xmlns="http://www.w3.org/2000/svg">
<circle cx="20" cy="20" r="19.25" stroke="#EEE2D2" stroke-width="1.5"/>
<path d="M10.4165 15.5625V27.4167C10.4165 28.3595 10.4165 28.8309 10.7094 29.1238C11.0023 29.4167 11.4737 29.4167 12.4165 29.4167H27.3748C28.3176 29.4167 28.789 29.4167 29.0819 29.1238C29.3748 28.8309 29.3748 28.3595 29.3748 27.4167V15.5625" stroke="#EEE2D2" stroke-width="1.5"/>
<path d="M32.2917 17.75L20.4725 9.40707C20.1268 9.16303 19.6649 9.16303 19.3192 9.40707L7.5 17.75" stroke="#EEE2D2" stroke-width="1.5" stroke-linecap="round"/>
<path d="M23.5417 28.6875V21.9375C23.5417 20.8329 22.6462 19.9375 21.5417 19.9375H18.25C17.1454 19.9375 16.25 20.8329 16.25 21.9375V28.6875" stroke="#EEE2D2" stroke-width="1.5" stroke-linejoin="round"/>
<path d="M27.9165 14.1042V9" stroke="#EEE2D2" stroke-width="1.5" stroke-linecap="round"/>
</svg>
