<svg width="40" height="40" viewBox="0 0 40 40" fill="none" xmlns="http://www.w3.org/2000/svg">
<path d="M9.9165 15.5625V27.4167C9.9165 28.3595 9.9165 28.8309 10.2094 29.1238C10.5023 29.4167 10.9737 29.4167 11.9165 29.4167H26.8748C27.8176 29.4167 28.289 29.4167 28.5819 29.1238C28.8748 28.8309 28.8748 28.3595 28.8748 27.4167V15.5625" stroke="#000002" stroke-width="1.5"/>
<path d="M31.7917 17.75L19.9725 9.40707C19.6268 9.16303 19.1649 9.16303 18.8192 9.40707L7 17.75" stroke="#000002" stroke-width="1.5" stroke-linecap="round"/>
<path d="M23.0417 28.6875V21.9375C23.0417 20.8329 22.1462 19.9375 21.0417 19.9375H17.75C16.6454 19.9375 15.75 20.8329 15.75 21.9375V28.6875" stroke="#000002" stroke-width="1.5" stroke-linejoin="round"/>
<path d="M27.4165 14.1042V9" stroke="#000002" stroke-width="1.5" stroke-linecap="round"/>
<path d="M20 38.5C9.78273 38.5 1.5 30.2173 1.5 20H-1.5C-1.5 31.8741 8.12588 41.5 20 41.5V38.5ZM38.5 20C38.5 30.2173 30.2173 38.5 20 38.5V41.5C31.8741 41.5 41.5 31.8741 41.5 20H38.5ZM20 1.5C30.2173 1.5 38.5 9.78273 38.5 20H41.5C41.5 8.12588 31.8741 -1.5 20 -1.5V1.5ZM20 -1.5C8.12588 -1.5 -1.5 8.12588 -1.5 20H1.5C1.5 9.78273 9.78273 1.5 20 1.5V-1.5Z" fill="black"/>
</svg>
