<svg width="40" height="40" viewBox="0 0 40 40" fill="none" xmlns="http://www.w3.org/2000/svg">
<path d="M16.6841 19.5224L17.8238 20.1871C18.0648 20.3277 18.1853 20.398 18.2517 20.513C18.3181 20.628 18.3187 20.7675 18.32 21.0465L18.3258 22.3659C18.3314 23.6138 18.3342 24.2378 18.6776 24.3497C19.021 24.4617 19.391 23.9593 20.131 22.9544L23.2939 18.6597L23.2939 18.6597C23.875 17.8707 24.1656 17.4762 24.0021 17.193C23.8386 16.9098 23.3516 16.9642 22.3778 17.0729L17.077 17.6647C15.8368 17.8032 15.2167 17.8724 15.1419 18.2258C15.0672 18.5792 15.6062 18.8936 16.6841 19.5224Z" stroke="#000002" stroke-width="1.2"/>
<circle cx="20" cy="20" r="9" stroke="black" stroke-width="1.2"/>
</svg>
