<svg width="40" height="40" viewBox="0 0 40 40" fill="none" xmlns="http://www.w3.org/2000/svg">
<rect width="40" height="40" fill="black"/>
<path fill-rule="evenodd" clip-rule="evenodd" d="M27.575 15.5L24.25 12.175C24.1625 12.0875 23.9875 12 23.8125 12H13.3125C12.6125 12 12 12.6125 12 13.3125V26.4375C12 27.1375 12.6125 27.75 13.3125 27.75H26.4375C27.1375 27.75 27.75 27.1375 27.75 26.4375V15.9375C27.75 15.7625 27.6625 15.5875 27.575 15.5ZM17.25 13.3125H22.5V15.9375H17.25V13.3125ZM22.5 26.4375H17.25V21.1875H22.5V26.4375ZM23.8125 26.4375V21.1875C23.8125 20.4875 23.2 19.875 22.5 19.875H17.25C16.55 19.875 15.9375 20.4875 15.9375 21.1875V26.4375H13.3125V13.3125H15.9375V15.9375C15.9375 16.6375 16.55 17.25 17.25 17.25H22.5C23.2 17.25 23.8125 16.6375 23.8125 15.9375V13.575L26.4375 16.2V26.4375H23.8125Z" fill="#EEE2D2"/>
</svg>
