<svg width="30" height="30" viewBox="0 0 30 30" fill="none" xmlns="http://www.w3.org/2000/svg">
<rect width="30" height="30" fill="#6A735A"/>
<path d="M8.41412 9.65147L10.749 14.0294L10.749 14.0294C10.8719 14.2598 10.9333 14.375 10.9333 14.5C10.9333 14.625 10.8719 14.7402 10.749 14.9706L10.749 14.9706L8.41412 19.3485C7.82963 20.4445 7.53738 20.9924 7.78568 21.2539C8.03397 21.5153 8.59628 21.2517 9.7209 20.7246L21.0684 15.4055C21.9041 15.0137 22.322 14.8178 22.322 14.5C22.322 14.1822 21.9041 13.9863 21.0684 13.5945L9.72091 8.27542C8.59628 7.74826 8.03397 7.48467 7.78568 7.74613C7.53738 8.00759 7.82963 8.55555 8.41412 9.65147Z" stroke="#EEE2D2" stroke-width="1.2"/>
</svg>
