<svg width="40" height="40" viewBox="0 0 40 40" fill="none" xmlns="http://www.w3.org/2000/svg">
<circle cx="20" cy="20" r="19.5" stroke="#EEE2D2"/>
<path d="M20.3211 21.4393C20.3211 21.8552 19.984 22.1921 19.5683 22.1921C19.1526 22.1921 18.8154 21.8552 18.8154 21.4393C18.8154 21.0235 19.1526 20.6866 19.5683 20.6866C19.984 20.6866 20.3211 21.0235 20.3211 21.4393Z" fill="#EEE2D2"/>
<path d="M16.9588 21.4393C16.9588 21.8552 16.6217 22.1921 16.206 22.1921C15.7901 22.1921 15.4531 21.8552 15.4531 21.4393C15.4531 21.0235 15.7901 20.6866 16.206 20.6866C16.6217 20.6866 16.9588 21.0235 16.9588 21.4393Z" fill="#EEE2D2"/>
<path d="M13.5964 21.4393C13.5964 21.8552 13.2594 22.1921 12.8435 22.1921C12.4278 22.1921 12.0908 21.8552 12.0908 21.4393C12.0908 21.0235 12.4278 20.6866 12.8435 20.6866C13.2594 20.6866 13.5964 21.0235 13.5964 21.4393Z" fill="#EEE2D2"/>
<path d="M10.7603 27.5872H15.8293L21.5506 31L21.2746 27.6122H21.6509C23.1064 27.6122 24.3108 26.4831 24.4114 25.0526L27.7238 27.0099L27.4478 23.6222L27.8241 23.6224C29.3548 23.6224 30.5845 22.3927 30.5845 20.862V13.7604C30.5845 12.2297 29.3549 11 27.8241 11L16.9334 11.0002C15.4027 11.0002 14.173 12.2298 14.173 13.7606L14.1732 14.965H10.7604C9.22969 14.965 8 16.2197 8 17.7253V24.8268C8 26.3575 9.22964 27.5872 10.7604 27.5872L10.7603 27.5872ZM15.2018 13.7605C15.2018 12.8069 15.9796 12.029 16.9333 12.029H27.824C28.7776 12.029 29.5555 12.8069 29.5555 13.7605V20.8621C29.5555 21.8157 28.7777 22.5936 27.824 22.5936H26.3435L26.5443 25.128L24.4112 23.8734V17.7254C24.4112 16.1946 23.1816 14.965 21.6508 14.965L15.2017 14.9651L15.2018 13.7605ZM9.0287 17.7254C9.0287 16.7718 9.80656 15.9939 10.7602 15.9939H21.6509C22.6045 15.9939 23.3825 16.7717 23.3825 17.7254V24.8269C23.3825 25.7805 22.6046 26.5584 21.6509 26.5584H20.1704L20.3712 29.0929L16.1053 26.5584H10.7603C9.80672 26.5584 9.02881 25.7806 9.02881 24.8269L9.0287 17.7254Z" fill="#EEE2D2"/>
</svg>
